<?xml version="1.0" encoding="UTF-8" standalone="no"?>
<svg width="287px" height="68px" viewBox="0 0 287 68" version="1.1" xmlns="http://www.w3.org/2000/svg" xmlns:xlink="http://www.w3.org/1999/xlink" xmlns:sketch="http://www.bohemiancoding.com/sketch/ns">
    <!-- Generator: Sketch 3.2.2 (9983) - http://www.bohemiancoding.com/sketch -->
    <title>Capitol + Watch + Group</title>
    <desc>Created with Sketch.</desc>
    <defs></defs>
    <g id="Capitol-Watch" stroke="none" stroke-width="1" fill="none" fill-rule="evenodd" sketch:type="MSPage">
        <g id="Desktop-3" sketch:type="MSArtboardGroup" transform="translate(-43.000000, -15.000000)">
            <g id="Capitol-+-Watch-+-Group" sketch:type="MSLayerGroup" transform="translate(43.000000, 15.000000)">
                <text id="Capitol" sketch:type="MSTextLayer" font-family="Lato" font-size="36" font-weight="686" fill="#36A1E8">
                    <tspan x="58" y="61">Capitol</tspan>
                </text>
                <text id="Watch" sketch:type="MSTextLayer" font-family="Lato" font-size="36" font-weight="686" fill="#FA7474">
                    <tspan x="180" y="61">Watch</tspan>
                </text>
                <g id="Group" sketch:type="MSShapeGroup">
                    <path d="M1.98794579,41.1837926 C1.98794579,41.1837926 10.2762841,35.3851889 25.1544059,35.0265124 C40.0325278,34.667836 47.1948152,40.7378545 47.1948152,40.7378545 L47.1948152,50.5654451 C47.1948152,50.5654451 38.9248769,47.0410479 25.154406,47.0410479 C11.3839351,47.0410479 1.98794579,51.1871246 1.98794579,51.1871246 L1.98794579,41.1837926 Z" id="Rectangle-12" fill="#F6F6F6"></path>
                    <path d="M22.6658238,9.43118253 L22.6299572,7.04325997 C22.6299572,7.04325997 23.5082677,5.02046923 23.2430513,4.61779462 C22.9778348,4.21512001 22.4850899,2.06927935 22.9981499,1.65128613 C23.5112099,1.23329292 23.0511091,0.0393316717 23.8653921,0.0393316762 C24.6796752,0.0393316807 24.5814624,1.35345498 24.3833557,1.35345501 C24.185249,1.35345503 26.0053273,3.04099708 24.7904972,5.56716272 L24.6859798,6.719061 L25.3942043,6.7442988 L25.4597729,9.33902062 L22.6658238,9.43118253 Z" id="Path-22" fill="#393939"></path>
                    <path d="M21.2847628,10.2917789 C21.2847628,10.2917789 21.8526032,9.27121761 24.2565036,9.27121759 C26.660404,9.27121756 26.6744142,10.3490348 26.6744142,10.3490348 L21.2847628,10.2917789 Z" id="Path-21" fill="#C8C8C8"></path>
                    <path d="M19.309249,12.3622699 C19.309249,12.3622699 19.0691487,10.103095 24.3445028,10.1030949 C29.619857,10.1030947 28.8115048,12.7215535 28.8115048,12.7215535 C28.8115048,12.7215535 29.3959385,14.3887596 24.344503,14.8614465 C19.2930675,15.3341333 19.309249,12.3622699 19.309249,12.3622699 Z" id="Path-20" fill="#E9E9E9"></path>
                    <path d="M20.1575454,20.6544531 L20.3809074,12.9491416 C20.3809074,12.9491416 21.3605091,12.577974 21.3605091,13.0240186 L21.3605091,20.4834765 L20.1575454,20.6544531 Z" id="Path-19" fill="#D8D8D8"></path>
                    <path d="M23.2800944,20.4391891 L23.5034564,11.8887073 C23.5034564,11.8887073 24.4830581,11.4768275 24.4830582,11.9717973 L24.4830582,20.2494586 L23.2800944,20.4391891 Z" id="Path-18" fill="#D8D8D8"></path>
                    <path d="M21.5987219,20.8697172 L21.8220838,12.3192354 C21.8220838,12.3192354 22.8016855,11.9073556 22.8016856,12.4023254 L22.8016856,20.6799867 L21.5987219,20.8697172 Z" id="Path-17" fill="#D8D8D8"></path>
                    <path d="M24.961467,18.2865485 L25.1848289,12.0602849 C25.1848289,12.0602849 26.1644306,11.7603636 26.1644307,12.1207891 L26.1644307,18.1483911 L24.961467,18.2865485 Z" id="Path-16" fill="#D8D8D8"></path>
                    <path d="M26.6428395,20.4391891 L26.8662015,12.9451701 C26.8662015,12.9451701 27.8458032,12.5841805 27.8458033,13.0179939 L27.8458033,20.2729009 L26.6428395,20.4391891 Z" id="Path-15" fill="#D8D8D8"></path>
                    <path d="M19.5263859,19.8714258 L19.545029,18.8910019 C19.545029,18.8910019 24.1014034,15.5293575 28.9422711,18.9765467 L28.8841046,19.702007 L19.5263859,19.8714258 Z" id="Path-14" fill="#C3C3C3"></path>
                    <path d="M17.1607582,22.1503051 L17.4912085,20.6834887 C17.4912085,20.6834887 25.8008037,17.013661 31.1733759,21.1939611 L31.3653141,21.99197 L24.7829066,20.9979014" id="Path-13" fill="#D8D8D8"></path>
                    <path d="M5.38891929,36.2116558 C5.38891929,36.2116558 9.14253942,21.3140341 23.9913355,20.9315302 C38.8401315,20.5490263 43.3799541,35.355076 43.3799541,35.355076 C43.3799541,35.355076 37.510043,31.5669203 24.9790556,31.5669199 C12.4480681,31.5669194 5.38891929,36.2116558 5.38891929,36.2116558 Z" id="Path-12" fill-opacity="0.670000017" fill="#D8D8D8"></path>
                    <path d="M2.84617083,38.3265012 C2.84617083,38.3265012 8.73741282,32.8240147 24.1213145,32.3093812 C39.5052162,31.7947477 46.0740541,37.6959938 46.0740541,37.6959938 L46.0740541,38.3265012 C46.0740541,38.3265012 38.9263482,32.568541 24.4830582,32.8622933 C10.0397681,33.1560455 2.84617083,38.9381336 2.84617083,38.9381336 L2.84617083,38.3265012 Z" id="Rectangle-10" fill="#E7E7E7"></path>
                    <path d="M1.40499436,41.2808952 C1.40499436,41.2808952 7.72178788,35.2449006 24.2169396,34.6803695 C40.7120913,34.1158385 47.7554267,40.5892553 47.7554267,40.5892553 L47.7554267,41.2808952 C47.7554267,41.2808952 40.0914091,34.9646569 24.6048137,35.2868907 C9.11821825,35.6091245 1.40499436,41.95183 1.40499436,41.95183 L1.40499436,41.2808952 Z" id="Rectangle-11" fill="#E7E7E7"></path>
                    <path d="M0.240196078,63.1873106 C0.240196078,63.1873106 7.81511748,59.3507021 25.1183521,59.3507021 C42.4215867,59.3507021 49,62.6668008 49,62.6668008 L49,65.9374188 C49,65.9374188 43.4086387,62.6668009 25.1183521,62.6668009 C6.82806539,62.6668009 0.240196078,65.9374188 0.240196078,65.9374188 L0.240196078,63.1873106 Z" id="Rectangle-33" fill="#E7E7E7"></path>
                    <path d="M0.240196078,64.5623647 C0.240196078,64.5623647 7.81511748,60.7257562 25.1183521,60.7257562 C42.4215867,60.7257562 49,64.0418549 49,64.0418549 L49,67.3124729 C49,67.3124729 43.4086387,64.041855 25.1183521,64.041855 C6.82806539,64.041855 0.240196078,67.3124729 0.240196078,67.3124729 L0.240196078,64.5623647 Z" id="Rectangle-34" fill="#D8D8D8"></path>
                    <path d="M0.240196078,65.2498918 C0.240196078,65.2498918 7.81511748,61.4132833 25.1183521,61.4132833 C42.4215867,61.4132833 49,64.729382 49,64.729382 L49,68 C49,68 43.4086387,64.7293821 25.1183521,64.7293821 C6.82806539,64.7293821 0.240196078,68 0.240196078,68 L0.240196078,65.2498918 Z" id="Rectangle-35" fill="#D9D9D9"></path>
                    <path d="M1.93603795,51.5509495 L3.84313721,50.6681635 L3.84313721,62.6477236 L2.17662653,63.2118528 L1.93603795,51.5509495 Z" id="Rectangle-20" fill="#EAEAEA"></path>
                    <path d="M6.00490196,49.7530069 L8.40686275,49.1048244 L8.40686275,61.2575003 L6.00490196,61.6485137 L6.00490196,49.7530069 Z" id="Rectangle-21" fill="#EAEAEA"></path>
                    <path d="M10.5686275,48.5349161 L12.9705882,48.1433492 L12.9705882,60.4468363 L10.5686275,60.6870385 L10.5686275,48.5349161 Z" id="Rectangle-22" fill="#EAEAEA"></path>
                    <path d="M15.1323529,47.7131908 L17.5343137,47.4521735 L17.5343137,59.9958628 L15.1323529,59.9958628 L15.1323529,47.7131908 Z" id="Rectangle-23" fill="#EAEAEA"></path>
                    <rect id="Rectangle-24" fill="#EAEAEA" x="19.4558824" y="47.3580936" width="2.40196078" height="12.5436893"></rect>
                    <path d="M24.0196078,47.1428295 L26.4215686,47.1428295 L26.4215686,59.6865189 L24.2598039,59.6865189 L24.0196078,47.1428295 Z" id="Rectangle-25" fill="#EAEAEA"></path>
                    <rect id="Rectangle-26" fill="#EAEAEA" x="28.3431373" y="47.1428295" width="2.40196078" height="12.5436893"></rect>
                    <path d="M33.1470588,47.3580936 L35.5490196,47.3580936 L35.5490196,59.9017829 L33.1470588,59.7182912 L33.1470588,47.3580936 Z" id="Rectangle-27" fill="#EAEAEA"></path>
                    <path d="M37.2303922,48.0628941 L39.6323529,48.357805 L39.6323529,60.6065834 L37.2303922,60.3538685 L37.2303922,48.0628941 Z" id="Rectangle-28" fill="#EAEAEA"></path>
                    <path d="M41.5539216,48.9012509 L43.9558824,49.372742 L43.9558824,61.4449402 L41.5539216,61.046951 L41.5539216,48.9012509 Z" id="Rectangle-29" fill="#EAEAEA"></path>
                    <path d="M45.6372549,50.1683078 L47.5588235,50.9964175 L47.5588235,62.7119971 L45.6372549,62.0777504 L45.6372549,50.1683078 Z" id="Rectangle-30" fill="#EAEAEA"></path>
                    <path d="M0.240196078,52.309167 C0.240196078,52.309167 5.59924122,47.4223762 24.379902,46.9895242 C43.1605627,46.5566722 48.5196078,51.534414 48.5196078,51.534414 L48.5196078,52.9347716 C48.5196078,52.9347716 39.0435471,47.899829 24.379902,48.3745951 C9.71625683,48.8493611 0.240196078,53.8160155 0.240196078,53.8160155 L0.240196078,52.309167 Z" id="Rectangle-32" fill="#DCDCDC"></path>
                    <path d="M0.204013967,51.7519426 C0.204013967,51.7519426 6.84815482,46.9608009 24.1981143,46.5126977 C41.5480737,46.0645945 48.9564071,51.2029453 48.9564071,51.2029453 L48.9564071,51.7519426 C48.9564071,51.7519426 40.8952266,46.7383541 24.6060886,46.994131 C8.31695067,47.2499078 0.204013967,52.284505 0.204013967,52.284505 L0.204013967,51.7519426 Z" id="Rectangle-13" fill="#D5D5D5"></path>
                    <path d="M0.204013967,66.9587993 C0.204013967,66.9587993 6.84815482,63.4125105 24.1981143,63.0808352 C41.5480737,62.7491599 48.9564071,66.5524446 48.9564071,66.5524446 L48.9564071,66.9587993 C48.9564071,66.9587993 40.8952266,63.2478607 24.6060886,63.4371807 C8.31695067,63.6265006 0.204013967,67.3529893 0.204013967,67.3529893 L0.204013967,66.9587993 Z" id="Rectangle-14" fill="#D5D5D5"></path>
                    <path d="M22.0701163,45.0847935 L22.0701163,37.7332222 C22.0701163,37.7332222 24.3887218,35.2912617 26.002582,37.7338508 L26.1819615,45.0847935 L22.0701163,45.0847935 Z" id="Path-25" fill="#CACACA"></path>
                    <path d="M29.2759986,37.9277979 C29.2759986,37.9277979 31.4591613,35.8315757 32.9787467,38.312486 L33.1476476,45.3218956 L29.2759986,44.920285 L29.2759986,37.9277979 Z" id="Path-26" fill="#CACACA"></path>
                    <path d="M39.2448019,39.6991533 L39.3927457,46.3767325 L36.0014888,45.6382107 L36.0014888,38.9922814 C36.0014888,38.9922814 37.9137658,37.2011538 39.2448019,39.6991533 Z" id="Path-27" fill="#CACACA"></path>
                    <path d="M44.1966672,47.8691023 L41.2858026,46.7989224 L41.2858026,40.7040824 C41.2858026,40.7040824 42.9271939,39.2830262 44.0696806,41.7280967 L44.1966672,47.8691023 Z" id="Path-28" fill="#CACACA"></path>
                    <path d="M15.2060057,38.3725706 C15.2060057,38.3725706 17.3891683,36.2763484 18.9087538,38.7572587 L19.0776547,45.7666683 L15.2060057,45.3650577 L15.2060057,38.3725706 Z" id="Path-31" fill="#CACACA" transform="translate(17.141830, 41.655950) scale(-1, 1) translate(-17.141830, -41.655950) "></path>
                    <path d="M12.3428411,40.4819908 L12.4907849,47.15957 L9.09952805,46.4210482 L9.09952805,39.7751189 C9.09952805,39.7751189 11.011805,37.9839914 12.3428411,40.4819908 Z" id="Path-30" fill="#CACACA" transform="translate(10.795156, 43.156484) scale(-1, 1) translate(-10.795156, -43.156484) "></path>
                    <path d="M6.61841142,49.1606867 L3.70754674,48.0905068 L3.70754674,41.9956668 C3.70754674,41.9956668 5.34893804,40.5746106 6.49142475,43.0196811 L6.61841142,49.1606867 Z" id="Path-29" fill="#CACACA" transform="translate(5.162979, 45.372864) scale(-1, 1) translate(-5.162979, -45.372864) "></path>
                </g>
            </g>
        </g>
    </g>
</svg>